<svg xmlns="http://www.w3.org/2000/svg" width="380" height="640" viewBox="0 0 380 640" fill="none">
  <rect width="380" height="640" fill="#efefef"/>
  <rect x="26" y="74" width="328" height="422" rx="6" fill="#ffffff" stroke="#e3e3e3"/>
  <text x="46" y="116" fill="#666666" font-size="22" font-family="Arial, PingFang SC, Microsoft YaHei">北京家园医院</text>
  <rect x="286" y="86" width="52" height="52" rx="4" fill="#d8d8d8"/>
  <circle cx="312" cy="104" r="12" fill="#bababa"/>
  <rect x="296" y="120" width="32" height="12" rx="6" fill="#c6c6c6"/>
  <text x="46" y="214" fill="#676767" font-size="34" font-family="Arial, PingFang SC, Microsoft YaHei">杜助理</text>
  <text x="46" y="260" fill="#888888" font-size="20" font-family="Arial, PingFang SC, Microsoft YaHei">13371786512</text>
  <line x1="26" y1="292" x2="354" y2="292" stroke="#ececec"/>
  <rect x="118" y="330" width="144" height="144" rx="8" fill="#ffffff" stroke="#d5d5d5"/>
  <rect x="128" y="340" width="34" height="34" fill="#111111"/>
  <rect x="218" y="340" width="34" height="34" fill="#111111"/>
  <rect x="128" y="430" width="34" height="34" fill="#111111"/>
  <g fill="#111111" opacity="0.72">
    <rect x="170" y="348" width="8" height="8"/>
    <rect x="182" y="352" width="6" height="6"/>
    <rect x="192" y="346" width="7" height="7"/>
    <rect x="205" y="354" width="5" height="5"/>
    <rect x="174" y="366" width="7" height="7"/>
    <rect x="188" y="370" width="6" height="6"/>
    <rect x="201" y="366" width="7" height="7"/>
    <rect x="210" y="378" width="6" height="6"/>
    <rect x="173" y="388" width="6" height="6"/>
    <rect x="186" y="392" width="8" height="8"/>
    <rect x="201" y="389" width="6" height="6"/>
    <rect x="214" y="394" width="8" height="8"/>
    <rect x="171" y="408" width="8" height="8"/>
    <rect x="184" y="411" width="6" height="6"/>
    <rect x="198" y="406" width="8" height="8"/>
    <rect x="214" y="412" width="6" height="6"/>
    <rect x="174" y="426" width="7" height="7"/>
    <rect x="187" y="431" width="5" height="5"/>
    <rect x="199" y="426" width="8" height="8"/>
    <rect x="211" y="433" width="7" height="7"/>
  </g>
  <circle cx="190" cy="403" r="16" fill="#111111" fill-opacity="0.85"/>
  <circle cx="185" cy="399" r="10" fill="#ffffff"/>
  <circle cx="204" cy="409" r="6" fill="#ffffff"/>
  <text x="65" y="562" fill="#b5b5b5" font-size="18" font-family="Arial, PingFang SC, Microsoft YaHei">扫描二维码，添加我的企业微信</text>
  <text x="144" y="616" fill="#b5b5b5" font-size="20" font-family="Arial, PingFang SC, Microsoft YaHei">企业微信</text>
</svg>
